<mxfile host="app.diagrams.net" agent="Mozilla/5.0 (Windows NT 10.0; Win64; x64) AppleWebKit/537.36 (KHTML, like Gecko) Chrome/131.0.0.0 Safari/537.36" version="25.0.3">
  <diagram name="Page-1" id="SwG_BYQVnmV5JpmVGbV5">
    <mxGraphModel dx="1059" dy="595" grid="0" gridSize="10" guides="1" tooltips="1" connect="1" arrows="1" fold="1" page="0" pageScale="1" pageWidth="827" pageHeight="1169" math="0" shadow="0">
      <root>
        <mxCell id="0" />
        <mxCell id="1" parent="0" />
        <mxCell id="YPcBbTrCLu1PFGVpNxhR-8" value="" style="rounded=0;whiteSpace=wrap;html=1;" parent="1" vertex="1">
          <mxGeometry x="200" y="130" width="440" height="590" as="geometry" />
        </mxCell>
        <mxCell id="YPcBbTrCLu1PFGVpNxhR-9" value="Africa gÃ©o junior V2" style="text;html=1;align=center;verticalAlign=middle;whiteSpace=wrap;rounded=0;" parent="1" vertex="1">
          <mxGeometry x="350" y="140" width="130" height="30" as="geometry" />
        </mxCell>
        <mxCell id="YPcBbTrCLu1PFGVpNxhR-10" value="User" style="shape=umlActor;verticalLabelPosition=bottom;verticalAlign=top;html=1;outlineConnect=0;" parent="1" vertex="1">
          <mxGeometry x="80" y="247" width="30" height="60" as="geometry" />
        </mxCell>
        <mxCell id="YPcBbTrCLu1PFGVpNxhR-11" value="Admin" style="shape=umlActor;verticalLabelPosition=bottom;verticalAlign=top;html=1;outlineConnect=0;" parent="1" vertex="1">
          <mxGeometry x="80" y="360" width="30" height="60" as="geometry" />
        </mxCell>
        <mxCell id="YPcBbTrCLu1PFGVpNxhR-13" value="S&#39;authentifier" style="ellipse;whiteSpace=wrap;html=1;" parent="1" vertex="1">
          <mxGeometry x="421" y="300" width="109" height="50" as="geometry" />
        </mxCell>
        <mxCell id="YPcBbTrCLu1PFGVpNxhR-14" value="Consulter les pays" style="ellipse;whiteSpace=wrap;html=1;" parent="1" vertex="1">
          <mxGeometry x="225" y="257" width="100" height="50" as="geometry" />
        </mxCell>
        <mxCell id="YPcBbTrCLu1PFGVpNxhR-15" value="Consulter les villes" style="ellipse;whiteSpace=wrap;html=1;" parent="1" vertex="1">
          <mxGeometry x="421" y="190" width="109" height="50" as="geometry" />
        </mxCell>
        <mxCell id="YPcBbTrCLu1PFGVpNxhR-16" value="Afficher les pays" style="ellipse;whiteSpace=wrap;html=1;" parent="1" vertex="1">
          <mxGeometry x="220" y="390" width="101" height="50" as="geometry" />
        </mxCell>
        <mxCell id="YPcBbTrCLu1PFGVpNxhR-17" value="Modifier un pays" style="ellipse;whiteSpace=wrap;html=1;" parent="1" vertex="1">
          <mxGeometry x="430" y="380" width="110" height="50" as="geometry" />
        </mxCell>
        <mxCell id="YPcBbTrCLu1PFGVpNxhR-18" value="Supprimer un pays" style="ellipse;whiteSpace=wrap;html=1;" parent="1" vertex="1">
          <mxGeometry x="430" y="440" width="110" height="50" as="geometry" />
        </mxCell>
        <mxCell id="YPcBbTrCLu1PFGVpNxhR-19" value="Ajouter les pays" style="ellipse;whiteSpace=wrap;html=1;" parent="1" vertex="1">
          <mxGeometry x="430" y="500" width="110" height="50" as="geometry" />
        </mxCell>
        <mxCell id="YPcBbTrCLu1PFGVpNxhR-21" value="Ajouter une ville" style="ellipse;whiteSpace=wrap;html=1;" parent="1" vertex="1">
          <mxGeometry x="480" y="640" width="109" height="50" as="geometry" />
        </mxCell>
        <mxCell id="YPcBbTrCLu1PFGVpNxhR-22" value="Supprimer une ville" style="ellipse;whiteSpace=wrap;html=1;" parent="1" vertex="1">
          <mxGeometry x="350" y="650" width="110" height="50" as="geometry" />
        </mxCell>
        <mxCell id="YPcBbTrCLu1PFGVpNxhR-23" value="Modifier une ville" style="ellipse;whiteSpace=wrap;html=1;" parent="1" vertex="1">
          <mxGeometry x="220" y="640" width="110" height="50" as="geometry" />
        </mxCell>
        <mxCell id="YPcBbTrCLu1PFGVpNxhR-24" value="" style="endArrow=none;html=1;rounded=0;entryX=0;entryY=0.5;entryDx=0;entryDy=0;" parent="1" source="YPcBbTrCLu1PFGVpNxhR-11" target="YPcBbTrCLu1PFGVpNxhR-16" edge="1">
          <mxGeometry width="50" height="50" relative="1" as="geometry">
            <mxPoint x="120" y="500" as="sourcePoint" />
            <mxPoint x="170" y="430" as="targetPoint" />
            <Array as="points" />
          </mxGeometry>
        </mxCell>
        <mxCell id="YPcBbTrCLu1PFGVpNxhR-27" value="" style="endArrow=none;html=1;rounded=0;entryX=0;entryY=0.5;entryDx=0;entryDy=0;" parent="1" target="YPcBbTrCLu1PFGVpNxhR-14" edge="1">
          <mxGeometry width="50" height="50" relative="1" as="geometry">
            <mxPoint x="111" y="282" as="sourcePoint" />
            <mxPoint x="230" y="190" as="targetPoint" />
            <Array as="points" />
          </mxGeometry>
        </mxCell>
        <mxCell id="YPcBbTrCLu1PFGVpNxhR-28" value="&amp;lt;&amp;lt;extend&amp;gt;&amp;gt;" style="endArrow=open;endSize=12;dashed=1;html=1;rounded=0;entryX=1;entryY=0.5;entryDx=0;entryDy=0;exitX=0;exitY=0.5;exitDx=0;exitDy=0;" parent="1" source="YPcBbTrCLu1PFGVpNxhR-15" target="YPcBbTrCLu1PFGVpNxhR-14" edge="1">
          <mxGeometry x="-0.0621" y="3" width="160" relative="1" as="geometry">
            <mxPoint x="390" y="229.5" as="sourcePoint" />
            <mxPoint x="550" y="229.5" as="targetPoint" />
            <mxPoint as="offset" />
          </mxGeometry>
        </mxCell>
        <mxCell id="YPcBbTrCLu1PFGVpNxhR-32" value="&amp;lt;&amp;lt;extend&amp;gt;&amp;gt;" style="endArrow=open;endSize=12;dashed=1;html=1;rounded=0;entryX=0.5;entryY=1;entryDx=0;entryDy=0;exitX=0.012;exitY=0.395;exitDx=0;exitDy=0;exitPerimeter=0;" parent="1" source="YPcBbTrCLu1PFGVpNxhR-20" target="YPcBbTrCLu1PFGVpNxhR-16" edge="1">
          <mxGeometry x="-0.0745" width="160" relative="1" as="geometry">
            <mxPoint x="378.4800000000006" y="563.32" as="sourcePoint" />
            <mxPoint x="279.9960000000001" y="430.00000000000006" as="targetPoint" />
            <mxPoint as="offset" />
          </mxGeometry>
        </mxCell>
        <mxCell id="YPcBbTrCLu1PFGVpNxhR-33" value="&amp;lt;&amp;lt;extend&amp;gt;&amp;gt;" style="endArrow=open;endSize=12;dashed=1;html=1;rounded=0;entryX=0.99;entryY=0.687;entryDx=0;entryDy=0;exitX=0;exitY=0.5;exitDx=0;exitDy=0;entryPerimeter=0;" parent="1" source="YPcBbTrCLu1PFGVpNxhR-18" target="YPcBbTrCLu1PFGVpNxhR-16" edge="1">
          <mxGeometry width="160" relative="1" as="geometry">
            <mxPoint x="371" y="370" as="sourcePoint" />
            <mxPoint x="311" y="420.5" as="targetPoint" />
          </mxGeometry>
        </mxCell>
        <mxCell id="YPcBbTrCLu1PFGVpNxhR-34" value="&amp;lt;&amp;lt;extend&amp;gt;&amp;gt;" style="endArrow=open;endSize=12;dashed=1;html=1;rounded=0;exitX=0;exitY=0.5;exitDx=0;exitDy=0;entryX=0.755;entryY=0.908;entryDx=0;entryDy=0;entryPerimeter=0;" parent="1" source="YPcBbTrCLu1PFGVpNxhR-19" target="YPcBbTrCLu1PFGVpNxhR-16" edge="1">
          <mxGeometry x="-0.0873" y="-2" width="160" relative="1" as="geometry">
            <mxPoint x="381" y="360" as="sourcePoint" />
            <mxPoint x="310" y="420" as="targetPoint" />
            <mxPoint y="-1" as="offset" />
          </mxGeometry>
        </mxCell>
        <mxCell id="YPcBbTrCLu1PFGVpNxhR-35" value="&amp;lt;&amp;lt;extend&amp;gt;&amp;gt;" style="endArrow=open;endSize=12;dashed=1;html=1;rounded=0;entryX=1;entryY=0.5;entryDx=0;entryDy=0;exitX=0;exitY=0.5;exitDx=0;exitDy=0;" parent="1" source="YPcBbTrCLu1PFGVpNxhR-17" target="YPcBbTrCLu1PFGVpNxhR-16" edge="1">
          <mxGeometry width="160" relative="1" as="geometry">
            <mxPoint x="400" y="470" as="sourcePoint" />
            <mxPoint x="321" y="430.5" as="targetPoint" />
          </mxGeometry>
        </mxCell>
        <mxCell id="YPcBbTrCLu1PFGVpNxhR-37" value="&amp;lt;&amp;lt;extend&amp;gt;&amp;gt;" style="endArrow=open;endSize=12;dashed=1;html=1;rounded=0;entryX=0.256;entryY=0.858;entryDx=0;entryDy=0;entryPerimeter=0;" parent="1" target="YPcBbTrCLu1PFGVpNxhR-20" edge="1">
          <mxGeometry width="160" relative="1" as="geometry">
            <mxPoint x="270" y="639" as="sourcePoint" />
            <mxPoint x="430" y="639" as="targetPoint" />
          </mxGeometry>
        </mxCell>
        <mxCell id="YPcBbTrCLu1PFGVpNxhR-38" value="&amp;lt;&amp;lt;extend&amp;gt;&amp;gt;" style="endArrow=open;endSize=12;dashed=1;html=1;rounded=0;entryX=0.652;entryY=0.925;entryDx=0;entryDy=0;entryPerimeter=0;" parent="1" source="YPcBbTrCLu1PFGVpNxhR-20" edge="1">
          <mxGeometry x="-1" y="36" width="160" relative="1" as="geometry">
            <mxPoint x="482.66999999999996" y="640" as="sourcePoint" />
            <mxPoint x="450.002" y="582" as="targetPoint" />
            <mxPoint x="31" y="-3" as="offset" />
          </mxGeometry>
        </mxCell>
        <mxCell id="YPcBbTrCLu1PFGVpNxhR-39" value="&amp;lt;&amp;lt;extend&amp;gt;&amp;gt;" style="endArrow=open;endSize=12;dashed=1;html=1;rounded=0;entryX=0.5;entryY=1;entryDx=0;entryDy=0;exitX=0.5;exitY=0;exitDx=0;exitDy=0;" parent="1" source="YPcBbTrCLu1PFGVpNxhR-22" target="YPcBbTrCLu1PFGVpNxhR-20" edge="1">
          <mxGeometry x="0.086" width="160" relative="1" as="geometry">
            <mxPoint x="380" y="640" as="sourcePoint" />
            <mxPoint x="430" y="584" as="targetPoint" />
            <Array as="points" />
            <mxPoint as="offset" />
          </mxGeometry>
        </mxCell>
        <mxCell id="YPcBbTrCLu1PFGVpNxhR-41" value="&amp;lt;&amp;lt;include&amp;gt;&amp;gt;" style="endArrow=open;endSize=12;dashed=1;html=1;rounded=0;entryX=0.223;entryY=0.109;entryDx=0;entryDy=0;exitX=1;exitY=1;exitDx=0;exitDy=0;entryPerimeter=0;" parent="1" source="YPcBbTrCLu1PFGVpNxhR-14" target="YPcBbTrCLu1PFGVpNxhR-13" edge="1">
          <mxGeometry width="160" relative="1" as="geometry">
            <mxPoint x="321" y="290" as="sourcePoint" />
            <mxPoint x="481" y="290" as="targetPoint" />
          </mxGeometry>
        </mxCell>
        <mxCell id="YPcBbTrCLu1PFGVpNxhR-42" value="&amp;lt;&amp;lt;include&amp;gt;&amp;gt;" style="endArrow=open;endSize=12;dashed=1;html=1;rounded=0;entryX=0;entryY=1;entryDx=0;entryDy=0;exitX=1;exitY=0;exitDx=0;exitDy=0;" parent="1" source="YPcBbTrCLu1PFGVpNxhR-16" target="YPcBbTrCLu1PFGVpNxhR-13" edge="1">
          <mxGeometry width="160" relative="1" as="geometry">
            <mxPoint x="331" y="300" as="sourcePoint" />
            <mxPoint x="401" y="330" as="targetPoint" />
          </mxGeometry>
        </mxCell>
        <mxCell id="YPcBbTrCLu1PFGVpNxhR-48" value="" style="endArrow=open;endSize=12;dashed=1;html=1;rounded=0;entryX=0.652;entryY=0.925;entryDx=0;entryDy=0;entryPerimeter=0;exitX=0.366;exitY=0.051;exitDx=0;exitDy=0;exitPerimeter=0;" parent="1" source="YPcBbTrCLu1PFGVpNxhR-21" target="YPcBbTrCLu1PFGVpNxhR-20" edge="1">
          <mxGeometry x="-0.1849" y="-1" width="160" relative="1" as="geometry">
            <mxPoint x="482.66999999999996" y="640" as="sourcePoint" />
            <mxPoint x="450.002" y="582" as="targetPoint" />
            <mxPoint as="offset" />
          </mxGeometry>
        </mxCell>
        <mxCell id="YPcBbTrCLu1PFGVpNxhR-20" value="Afficher les villes" style="ellipse;whiteSpace=wrap;html=1;" parent="1" vertex="1">
          <mxGeometry x="380" y="550" width="100" height="50" as="geometry" />
        </mxCell>
        <mxCell id="1Jjn_9I70245XloKFYGl-1" value="Visiteur" style="shape=umlActor;verticalLabelPosition=bottom;verticalAlign=top;html=1;outlineConnect=0;" vertex="1" parent="1">
          <mxGeometry x="80" y="140" width="30" height="60" as="geometry" />
        </mxCell>
        <mxCell id="1Jjn_9I70245XloKFYGl-2" value="" style="endArrow=none;html=1;rounded=0;entryX=0;entryY=0.5;entryDx=0;entryDy=0;" edge="1" parent="1">
          <mxGeometry width="50" height="50" relative="1" as="geometry">
            <mxPoint x="118" y="177" as="sourcePoint" />
            <mxPoint x="232" y="177" as="targetPoint" />
            <Array as="points" />
          </mxGeometry>
        </mxCell>
        <mxCell id="1Jjn_9I70245XloKFYGl-3" value="S&#39;inscrire" style="ellipse;whiteSpace=wrap;html=1;" vertex="1" parent="1">
          <mxGeometry x="227" y="157" width="109" height="50" as="geometry" />
        </mxCell>
      </root>
    </mxGraphModel>
  </diagram>
</mxfile>
